<svg width="50" height="50" viewBox="0 0 50 50" fill="none" xmlns="http://www.w3.org/2000/svg">
<path d="M44.4444 0H5.55556C2.5 0 0 2.5 0 5.55556V44.4444C0 47.5 2.5 50 5.55556 50H44.4444C47.5 50 50 47.5 50 44.4444V5.55556C50 2.5 47.5 0 44.4444 0ZM21.3056 14.3611L26.8611 19.9167L37.0556 9.72222L40.9722 13.6389L26.8611 27.7778L21.3056 22.2222L12.9722 30.5556L9.05556 26.6389L21.3056 14.3611ZM5.55556 36.1111H10.3333L5.55556 40.8889V36.1111ZM7.88889 44.4444L16.2222 36.1111H21.3056L12.9722 44.4444H7.88889ZM18.8889 44.4444L27.2222 36.1111H31.7222L23.3889 44.4444H18.8889ZM29.25 44.4444L37.5833 36.1111H42.0833L33.75 44.4444H29.25ZM44.4444 44.4444H39.6389L44.4444 39.6389V44.4444Z" fill="#202632"/>
</svg>
