<svg width="50" height="50" viewBox="0 0 50 50" fill="none" xmlns="http://www.w3.org/2000/svg">
<path d="M44.4444 5H41.6667V0H36.1111V5H13.8889V0H8.33333V5H5.55556C2.47222 5 0.0277778 7.25 0.0277778 10L0 45C0 47.75 2.47222 50 5.55556 50H44.4444C47.5 50 50 47.75 50 45V10C50 7.25 47.5 5 44.4444 5ZM44.4444 45H5.55556V20H44.4444V45ZM16.6667 30H11.1111V25H16.6667V30ZM27.7778 30H22.2222V25H27.7778V30ZM38.8889 30H33.3333V25H38.8889V30ZM16.6667 40H11.1111V35H16.6667V40ZM27.7778 40H22.2222V35H27.7778V40ZM38.8889 40H33.3333V35H38.8889V40Z" fill="#202632"/>
</svg>
